<?xml version="1.0" encoding="UTF-8" standalone="no"?>
<!-- Created with Inkscape (http://www.inkscape.org/) -->

<svg
   xmlns:dc="http://purl.org/dc/elements/1.1/"
   xmlns:cc="http://creativecommons.org/ns#"
   xmlns:rdf="http://www.w3.org/1999/02/22-rdf-syntax-ns#"
   xmlns:svg="http://www.w3.org/2000/svg"
   xmlns="http://www.w3.org/2000/svg"
   xmlns:sodipodi="http://sodipodi.sourceforge.net/DTD/sodipodi-0.dtd"
   xmlns:inkscape="http://www.inkscape.org/namespaces/inkscape"
   width="170mm"
   height="40mm"
   viewBox="0 0 170 40"
   version="1.1"
   id="svg935"
   inkscape:version="0.92.4 (5da689c313, 2019-01-14)"
   sodipodi:docname="tecta.svg">
  <defs
     id="defs929" />
  <sodipodi:namedview
     id="base"
     pagecolor="#ffffff"
     bordercolor="#666666"
     borderopacity="1.0"
     inkscape:pageopacity="0.0"
     inkscape:pageshadow="2"
     inkscape:zoom="1.4"
     inkscape:cx="352.51118"
     inkscape:cy="151.38692"
     inkscape:document-units="mm"
     inkscape:current-layer="layer1"
     showgrid="false"
     inkscape:window-width="1920"
     inkscape:window-height="1007"
     inkscape:window-x="-9"
     inkscape:window-y="-9"
     inkscape:window-maximized="1" />
  <metadata
     id="metadata932">
    <rdf:RDF>
      <cc:Work
         rdf:about="">
        <dc:format>image/svg+xml</dc:format>
        <dc:type
           rdf:resource="http://purl.org/dc/dcmitype/StillImage" />
        <dc:title />
      </cc:Work>
    </rdf:RDF>
  </metadata>
  <g
     inkscape:label="Layer 1"
     inkscape:groupmode="layer"
     id="layer1"
     transform="translate(0,-257)">
    <text
       xml:space="preserve"
       style="font-style:normal;font-weight:normal;font-size:8.05178833px;line-height:12;font-family:sans-serif;letter-spacing:0px;word-spacing:0px;fill:#3c3c76;fill-opacity:1;stroke:none;stroke-width:0.26458332"
       x="62.834427"
       y="284.78604"
       id="text1378"
       transform="scale(0.96602216,1.0351729)"><tspan
         sodipodi:role="line"
         id="tspan1376"
         x="62.834427"
         y="284.78604"
         style="font-style:normal;font-variant:normal;font-weight:normal;font-stretch:normal;font-family:'Swis721 Ex BT';-inkscape-font-specification:'Swis721 Ex BT';fill:#3c3c76;fill-opacity:1;stroke-width:0.26458332">IMMOBILIEN GMBH</tspan></text>
    <path
       inkscape:connector-curvature="0"
       id="path846"
       d="m 27.34411,285.28032 v -1.85208 H 13.566381 c -12.97921982,0 -13.77256982,-0.0268 -13.68859982,-0.46302 0.0833,-0.4328 0.98269,-0.4675 13.77773982,-0.53155 13.555379,-0.0679 13.688589,-0.0634 13.688589,0.46302 0,0.51897 0.16592,0.53155 7.011461,0.53155 h 7.011461 v 1.85208 1.85209 H 34.355571 27.34411 Z"
       style="fill:#f6c956;stroke-width:1"
       sodipodi:nodetypes="ccscssscccccc"
       inkscape:export-xdpi="300"
       inkscape:export-ydpi="300" />
    <path
       inkscape:connector-curvature="0"
       id="path844"
       d="m 42.425363,276.28449 c 0,-3.34698 0.0923,-6.08542 0.20506,-6.08542 0.112789,0 1.065289,0.86601 2.116669,1.92445 l 1.911609,1.92445 v 4.16097 4.16097 h -2.116669 -2.116669 z"
       style="fill:#49b7e8;stroke-width:1"
       sodipodi:nodetypes="ssccccccs"
       inkscape:export-xdpi="300"
       inkscape:export-ydpi="300" />
    <path
       inkscape:connector-curvature="0"
       id="path842"
       d="m 41.367032,289.38136 c 0,-2.07256 0.0415,-2.24895 0.529169,-2.24895 0.487659,0 0.529162,0.17639 0.529162,2.24895 0,2.07257 -0.0415,2.24896 -0.529162,2.24896 -0.487669,0 -0.529169,-0.17639 -0.529169,-2.24896 z m 1.322919,-4.10104 v -1.85208 h 1.98437 1.98438 v 1.85208 1.85209 h -1.98438 -1.98437 z M 27.34411,278.34935 v -4.02056 l 4.898221,-4.90913 4.89821,-4.90913 2.01358,2.05052 c 1.107461,1.12779 2.058421,2.05052 2.11324,2.05052 0.0548,0 0.0997,-1.19062 0.0997,-2.64583 0,-2.46945 0.0353,-2.64583 0.529169,-2.64583 0.500142,0 0.529162,0.17638 0.529162,3.216 0,3.19925 -0.003,3.21351 -0.529162,2.73712 -0.527859,-0.47771 -0.529169,-0.46213 -0.529169,6.30899 v 6.78789 H 34.3556 27.344142 Z"
       style="fill:#3c3c76;fill-opacity:1;stroke-width:1"
       sodipodi:nodetypes="sssssccccccccccccccsssscscccc"
       inkscape:export-xdpi="300"
       inkscape:export-ydpi="300" />
    <path
       inkscape:connector-curvature="0"
       id="path846-3"
       d="m 47.238273,282.9651 c 0.02913,-0.44035 3.057385,-0.46627 61.854357,-0.52936 61.77811,-0.0663 61.82366,-0.066 61.82366,0.46302 0,0.52891 -0.0531,0.52936 -61.85435,0.52936 -58.859917,0 -61.852867,-0.0224 -61.823667,-0.46302 z"
       style="fill:#f6c956;stroke-width:1"
       sodipodi:nodetypes="zsssz"
       inkscape:export-xdpi="300"
       inkscape:export-ydpi="300" />
    <text
       xml:space="preserve"
       style="font-style:normal;font-weight:normal;font-size:5.04692507px;line-height:12;font-family:sans-serif;letter-spacing:0px;word-spacing:0px;fill:#3c3c76;fill-opacity:1;stroke:none;stroke-width:0.26458329"
       x="57.49823"
       y="281.604"
       id="text1374"
       transform="scale(1.0173615,0.98293477)"><tspan
         sodipodi:role="line"
         id="tspan1372"
         x="57.49823"
         y="281.604"
         style="font-style:normal;font-variant:normal;font-weight:normal;font-stretch:expanded;font-size:23.55231476px;font-family:'Swis721 Ex BT';-inkscape-font-specification:'Swis721 Ex BT Expanded';fill:#3c3c76;fill-opacity:1;stroke-width:0.26458329">TECTA</tspan></text>
  </g>
</svg>
